<svg width="17" height="16" viewBox="0 0 17 16" fill="none" xmlns="http://www.w3.org/2000/svg">
<mask id="mask0_4_662" style="mask-type:alpha" maskUnits="userSpaceOnUse" x="0" y="0" width="17" height="16">
<rect x="0.5" width="16" height="16" fill="#D9D9D9"/>
</mask>
<g mask="url(#mask0_4_662)">
<path d="M7.56659 11.0667L12.2666 6.36666L11.3333 5.43333L7.56659 9.19999L5.66658 7.29999L4.73325 8.23333L7.56659 11.0667ZM8.49992 14.6667C7.5777 14.6667 6.71103 14.4917 5.89992 14.1417C5.08881 13.7917 4.38325 13.3167 3.78325 12.7167C3.18325 12.1167 2.70825 11.4111 2.35825 10.6C2.00825 9.78888 1.83325 8.92222 1.83325 7.99999C1.83325 7.07777 2.00825 6.21111 2.35825 5.39999C2.70825 4.58888 3.18325 3.88333 3.78325 3.28333C4.38325 2.68333 5.08881 2.20833 5.89992 1.85833C6.71103 1.50833 7.5777 1.33333 8.49992 1.33333C9.42214 1.33333 10.2888 1.50833 11.0999 1.85833C11.911 2.20833 12.6166 2.68333 13.2166 3.28333C13.8166 3.88333 14.2916 4.58888 14.6416 5.39999C14.9916 6.21111 15.1666 7.07777 15.1666 7.99999C15.1666 8.92222 14.9916 9.78888 14.6416 10.6C14.2916 11.4111 13.8166 12.1167 13.2166 12.7167C12.6166 13.3167 11.911 13.7917 11.0999 14.1417C10.2888 14.4917 9.42214 14.6667 8.49992 14.6667ZM8.49992 13.3333C9.98881 13.3333 11.2499 12.8167 12.2833 11.7833C13.3166 10.75 13.8333 9.48888 13.8333 7.99999C13.8333 6.51111 13.3166 5.24999 12.2833 4.21666C11.2499 3.18333 9.98881 2.66666 8.49992 2.66666C7.01103 2.66666 5.74992 3.18333 4.71659 4.21666C3.68325 5.24999 3.16659 6.51111 3.16659 7.99999C3.16659 9.48888 3.68325 10.75 4.71659 11.7833C5.74992 12.8167 7.01103 13.3333 8.49992 13.3333Z" fill="#2D9CDB"/>
</g>
</svg>
